<svg xmlns="http://www.w3.org/2000/svg" width="23.577" height="23.563" viewBox="0 0 23.577 23.563">
  <g id="help" transform="translate(-5.999 -6.036)">
    <g id="LWPOLYLINE" transform="translate(13.952 11.946)">
      <g id="Group_1204" data-name="Group 1204">
        <path id="Path_12251" data-name="Path 12251" d="M27.067,28.064h-.008a.907.907,0,0,1-.9-.915l0-.453a.748.748,0,0,1,0-.078,4.342,4.342,0,0,1,1.706-2.778c.239-.22.464-.429.657-.646a1.228,1.228,0,0,0,.217-1.459,2,2,0,0,0-2.2-.789,1.686,1.686,0,0,0-1.225,1.284.907.907,0,1,1-1.753-.469,3.439,3.439,0,0,1,2.573-2.583,3.774,3.774,0,0,1,4.2,1.687,3.028,3.028,0,0,1-.451,3.533,10.851,10.851,0,0,1-.784.775c-.651.6-1.058,1-1.126,1.583l0,.409a.906.906,0,0,1-.906.9Z" transform="translate(-23.537 -19.069)" fill="#fff"/>
      </g>
    </g>
    <g id="POINT" transform="translate(16.575 21.862)">
      <g id="Group_1205" data-name="Group 1205">
        <path id="Path_12252" data-name="Path 12252" d="M30.227,42.733a.914.914,0,0,1-.639-.263.9.9,0,0,1,0-1.283.938.938,0,0,1,1.279,0,.9.9,0,0,1,.268.639.9.9,0,0,1-.907.907Z" transform="translate(-29.32 -40.935)" fill="#fff"/>
      </g>
    </g>
    <g id="CIRCLE_2_" transform="translate(5.999 6.036)">
      <g id="Group_1206" data-name="Group 1206">
        <path id="Path_12253" data-name="Path 12253" d="M17.755,29.6a11.7,11.7,0,0,1-3.04-.4,11.861,11.861,0,1,1,3.04.4Zm.057-21.75a9.971,9.971,0,0,0-2.625,19.6,9.9,9.9,0,0,0,2.568.337h0a9.975,9.975,0,0,0,4.488-18.9A9.953,9.953,0,0,0,17.812,7.85Z" transform="translate(-5.999 -6.036)" fill="#fff"/>
      </g>
    </g>
  </g>
</svg>
