<svg id="XMLID_323_" xmlns="http://www.w3.org/2000/svg" width="20" height="20" viewBox="0 0 20 20">
  <g id="XMLID_1291_">
    <path id="XMLID_1351_" d="M19.609,0H3.828a.391.391,0,0,0-.391.391V2.109H2.109a.391.391,0,0,0-.391.391V4.609H.391A.391.391,0,0,0,0,5V17.891A2.112,2.112,0,0,0,2.109,20H17.891A2.112,2.112,0,0,0,20,17.891V.391A.391.391,0,0,0,19.609,0Zm-.391,17.891a1.33,1.33,0,0,1-1.328,1.328H3.747a2.1,2.1,0,0,0,.472-1.328V12.617a.391.391,0,0,0-.781,0v5.273a1.328,1.328,0,0,1-2.656,0V5.391h.937V17.5a.391.391,0,0,0,.781,0V2.891h.938V9.1a.391.391,0,0,0,.781,0V.781h15Z" fill="#fff"/>
    <path id="XMLID_1376_" d="M136.391,69.594h12.031a.391.391,0,0,0,.391-.391V66.391a.391.391,0,0,0-.391-.391H136.391a.391.391,0,0,0-.391.391V69.2A.391.391,0,0,0,136.391,69.594Zm.391-2.812h11.25v2.031h-11.25Z" transform="translate(-130.688 -63.422)" fill="#fff"/>
    <path id="XMLID_1459_" d="M136.391,194.281h6.016a.391.391,0,0,0,.391-.391v-7.5a.391.391,0,0,0-.391-.391h-6.016a.391.391,0,0,0-.391.391v7.5A.391.391,0,0,0,136.391,194.281Zm.391-7.5h5.234V193.5h-5.234Z" transform="translate(-130.688 -178.734)" fill="#fff"/>
    <path id="XMLID_1460_" d="M342.531,186h-4.141a.391.391,0,0,0,0,.781h4.141a.391.391,0,0,0,0-.781Z" transform="translate(-324.797 -178.734)" fill="#fff"/>
    <path id="XMLID_1476_" d="M342.531,234h-4.141a.391.391,0,0,0,0,.781h4.141a.391.391,0,0,0,0-.781Z" transform="translate(-324.797 -224.859)" fill="#fff"/>
    <path id="XMLID_1533_" d="M342.531,282h-4.141a.391.391,0,0,0,0,.781h4.141a.391.391,0,0,0,0-.781Z" transform="translate(-324.797 -270.984)" fill="#fff"/>
    <path id="XMLID_1535_" d="M342.531,330h-4.141a.391.391,0,0,0,0,.781h4.141a.391.391,0,0,0,0-.781Z" transform="translate(-324.797 -317.109)" fill="#fff"/>
    <path id="XMLID_1545_" d="M342.531,378h-4.141a.391.391,0,0,0,0,.781h4.141a.391.391,0,0,0,0-.781Z" transform="translate(-324.797 -363.234)" fill="#fff"/>
    <path id="XMLID_1550_" d="M136.391,426.781h12.031a.391.391,0,0,0,0-.781H136.391a.391.391,0,0,0,0,.781Z" transform="translate(-130.688 -409.359)" fill="#fff"/>
    <path id="XMLID_1572_" d="M88.891,268a.391.391,0,1,0,.276.114A.393.393,0,0,0,88.891,268Z" transform="translate(-85.043 -257.531)" fill="#fff"/>
  </g>
</svg>
