<svg xmlns="http://www.w3.org/2000/svg" width="22.973" height="18.692" viewBox="0 0 22.973 18.692">
  <g id="Layer_2" data-name="Layer 2" transform="translate(-1.241 -3.25)">
    <path id="Path_11785" data-name="Path 11785" d="M10.6,21.941A9.346,9.346,0,1,1,17.614,6.433a.812.812,0,0,1-.085,1.132A.8.8,0,0,1,16.4,7.48a7.722,7.722,0,1,0,0,10.189.8.8,0,0,1,1.132-.085.812.812,0,0,1,.085,1.132A9.3,9.3,0,0,1,10.6,21.941Z" transform="translate(0 0)" fill="#fff"/>
    <path id="Path_11786" data-name="Path 11786" d="M19.051,16.259a.79.79,0,0,1-.566-.235.8.8,0,0,1,0-1.132l2.638-2.638L18.485,9.616a.8.8,0,0,1,1.132-1.132l3.2,3.2a.8.8,0,0,1,0,1.132l-3.2,3.2A.79.79,0,0,1,19.051,16.259Z" transform="translate(1.158 0.342)" fill="#fff"/>
    <path id="Path_11787" data-name="Path 11787" d="M22.8,12.852H11.051a.8.8,0,0,1,0-1.6H22.8a.8.8,0,0,1,0,1.6Z" transform="translate(0.613 0.545)" fill="#fff"/>
  </g>
</svg>
