<svg xmlns="http://www.w3.org/2000/svg" width="22.989" height="22.98" viewBox="0 0 22.989 22.98">
  <path id="people" d="M22.848,13.642,19.54,12.263v-.99A3.689,3.689,0,0,0,21.319,8.8h.074a1.112,1.112,0,0,0,.03-2.225l.363-.842a3,3,0,0,0-1.509-3.912l-1.035-.471a3.8,3.8,0,0,0-3.794.412l-.577.435a2.309,2.309,0,0,0-1.614,2.984,3.846,3.846,0,0,0-1.691.041A2.984,2.984,0,0,0,9.9,1.823L8.861,1.352a3.8,3.8,0,0,0-3.794.412L4.49,2.2A2.31,2.31,0,0,0,3,5.471L3.55,6.578A1.113,1.113,0,1,0,3.6,8.8H3.67a3.694,3.694,0,0,0,1.78,2.47v.991L2.141,13.642A1.849,1.849,0,0,0,1,15.353V20.3a.371.371,0,0,0,.371.371h2.6v2.966A.371.371,0,0,0,4.337,24H20.652a.371.371,0,0,0,.371-.371V20.668h2.6a.371.371,0,0,0,.371-.371V15.353a1.849,1.849,0,0,0-1.141-1.711Zm-9.1-7.536,1.035.472a2.254,2.254,0,0,1,1.135,2.944l-.111.254-.38-.768a.371.371,0,0,0-.556-.131l-.593.445a2.966,2.966,0,0,1-3.56,0l-.593-.445a.367.367,0,0,0-.307-.064.371.371,0,0,0-.247.2l-.41.822-.306-.612a1.568,1.568,0,0,1,1.4-2.269,1.732,1.732,0,0,1,1.443.772l.116.175.617-.412-.116-.175a2.47,2.47,0,0,0-1.4-1.01,3.045,3.045,0,0,1,2.83-.194ZM16.2,11.4h.371a.371.371,0,0,1,0,.742H16.2Zm-4.82,4.279a3.7,3.7,0,0,0,2.225,0v.759l-1.112,1.112-1.112-1.112Zm1.112-.571A2.97,2.97,0,0,1,9.528,12.14v-1.4l.5-1.007.238.178a3.708,3.708,0,0,0,4.449,0l.238-.178.5,1.007v1.4a2.97,2.97,0,0,1-2.966,2.966ZM8.787,12.14H8.416a.371.371,0,0,1,0-.742h.371ZM3.966,19.57v.356H1.742V15.353a1.11,1.11,0,0,1,.684-1.026l3.537-1.474a.371.371,0,0,0,.228-.343V11.051a.388.388,0,0,0-.215-.336A2.954,2.954,0,0,1,4.355,8.391a.371.371,0,0,0-.369-.33H3.6a.371.371,0,1,1,0-.742h.371a.371.371,0,0,0,.371-.373l0-.371A.371.371,0,0,0,4.3,6.412L3.659,5.139A1.568,1.568,0,0,1,4.73,2.907a.38.38,0,0,0,.145-.066l.638-.482a3.047,3.047,0,0,1,3.04-.33L9.589,2.5a2.254,2.254,0,0,1,1.135,2.944l-.06.139a3.592,3.592,0,0,0-.405.261l-.585.438h0A2.307,2.307,0,0,0,8.186,9.549l.555,1.108H8.416a1.112,1.112,0,1,0,0,2.225h.445a3.717,3.717,0,0,0,1.78,2.465v.961L5.324,17.784A1.859,1.859,0,0,0,3.966,19.57Zm16.315,3.693H18.056V20.3h-.742v2.966H7.674V20.3H6.933v2.966H4.708V19.57A1.115,1.115,0,0,1,5.524,18.5L10.9,17l1.33,1.33a.371.371,0,0,0,.524,0L14.088,17,19.465,18.5a1.115,1.115,0,0,1,.816,1.072Zm2.966-3.337H21.023V19.57a1.859,1.859,0,0,0-1.358-1.786l-5.316-1.477v-.961a3.717,3.717,0,0,0,1.78-2.465h.445a1.112,1.112,0,0,0,0-2.225h-.34l.363-.842A3,3,0,0,0,15.087,5.9l-.86-.392-.185-.371a1.568,1.568,0,0,1,1.07-2.233.38.38,0,0,0,.145-.066l.638-.482a3.047,3.047,0,0,1,3.04-.33l1.036.471a2.254,2.254,0,0,1,1.135,2.944l-.426.987a.371.371,0,0,0-.03.148l0,.371a.371.371,0,0,0,.371.371h.371a.371.371,0,1,1,0,.742H21a.371.371,0,0,0-.369.33A2.953,2.953,0,0,1,19,10.719a.371.371,0,0,0-.206.332V12.51a.371.371,0,0,0,.228.342l3.538,1.475a1.11,1.11,0,0,1,.684,1.026Z" transform="translate(-1 -1.025)" fill="#fff"/>
</svg>
