<svg xmlns="http://www.w3.org/2000/svg" width="25.101" height="16.908" viewBox="0 0 25.101 16.908">
  <path id="senate" d="M43.883,41.555Zm12.672-7.529a3.765,3.765,0,0,1-.615.4V38.7c0,.854-1.361,1.565-3.561,2.027a45.75,45.75,0,0,1-15.847,0c-2.2-.462-3.56-1.173-3.56-2.027V34.337a4.438,4.438,0,0,1-.523-.3,1.605,1.605,0,0,1,.04-2.443,1.135,1.135,0,0,1,1.148-.109,2.524,2.524,0,0,1,1.7-2.161,1.934,1.934,0,1,1,2.82,0A2.525,2.525,0,0,1,39.857,31.7V32.87c.264.027.533.051.8.071v-1.7a.389.389,0,0,1,.39-.39h.286v-.561A2.524,2.524,0,0,1,43.044,27.9a1.933,1.933,0,1,1,2.819,0,2.525,2.525,0,0,1,1.706,2.382v.561h.288a.39.39,0,0,1,.39.39v1.707q.5-.038.981-.085V31.7a2.524,2.524,0,0,1,1.706-2.381,1.934,1.934,0,1,1,2.821,0,2.526,2.526,0,0,1,1.7,2.2A1.245,1.245,0,0,1,57,32.776,1.477,1.477,0,0,1,56.554,34.026Zm-1.4.756c-2.663,1.015-7.233,1.3-10.52,1.288-4.2-.017-8.44-.5-10.887-1.4V38.7c0,.432,1.123.884,2.939,1.265a45.189,45.189,0,0,0,15.53,0c1.815-.381,2.939-.833,2.939-1.265V34.781ZM34.406,31.793a22.068,22.068,0,0,0,4.67.993V31.7a1.74,1.74,0,0,0-1.735-1.734h-1.2A1.74,1.74,0,0,0,34.407,31.7v.09ZM41.441,33c.944.059,1.946.09,2.915.09.085,0-.288,0,.109,0v0c1.015,0,2.009-.028,3-.087V31.628H41.441Zm8.568-.22a23.093,23.093,0,0,0,4.67-.964V31.7a1.74,1.74,0,0,0-1.735-1.734h-1.2A1.74,1.74,0,0,0,50.009,31.7v1.072ZM44.95,35.284c1.087,0,2.167-.028,3.206-.089a22.1,22.1,0,0,0,7.226-1.362.425.425,0,0,1,.085-.028,3.221,3.221,0,0,0,.589-.379.842.842,0,0,0-.1-1.116c-.226-.131-.53.068-.787.152a23.963,23.963,0,0,1-5.468,1.13l-1.862.161c-1.032.079-2.306.108-3.377.11v0a48.97,48.97,0,0,1-5.082-.263A22.945,22.945,0,0,1,33.9,32.439l-.521-.216a.4.4,0,0,0-.6.21c-.146.294-.147.787.1.956a9.3,9.3,0,0,0,2.795,1.036,44.731,44.731,0,0,0,9.271.859Zm7.393-8.438A1.153,1.153,0,1,0,53.5,28,1.154,1.154,0,0,0,52.343,26.846Zm-7.076-1.08a1.153,1.153,0,1,0,0,1.632A1.154,1.154,0,0,0,45.268,25.766Zm-.215,2.785h-1.2a1.741,1.741,0,0,0-1.735,1.735v.561h4.67v-.561A1.74,1.74,0,0,0,45.053,28.552Zm-7.5-1.369a1.154,1.154,0,1,0,0,1.632A1.155,1.155,0,0,0,37.557,27.183Z" transform="translate(-31.903 -24.648)" fill="#fff"/>
</svg>
